# xmcd CD database file
#
# Track frame offsets:
#	150
#	29400
#	55402
#
# Disc length: 1124 seconds
#
# Revision: 2
# Processed by: cddbd v1.5.1PL0 Copyright (c) Steve Scherf et al.
# Submitted via: CDex 1.51
#
DISCID=22046203
DTITLE=globe - FACES PLACES
DYEAR=1997
DGENRE=JPop
TTITLE0=FACES PLACES (Straight Run)
TTITLE1=FACES PLACES (Dr. Distorto's Mix)
TTITLE2=FACES PLACES (Instrumental)
EXTD=YEAR: 1997
EXTT0=
EXTT1=
EXTT2=
PLAYORDER=
